<svg width="1900" height="1056" viewBox="0 0 1900 1056" fill="none" xmlns="http://www.w3.org/2000/svg">
<g clip-path="url(#clip0_1633_25038)">
<rect width="1900" height="1056" fill="white"/>
<rect x="1" y="-55" width="1898" height="1115" fill="#F0F9FE"/>
<mask id="mask0_1633_25038" style="mask-type:alpha" maskUnits="userSpaceOnUse" x="1" y="-55" width="1898" height="1115">
<rect x="1" y="-55" width="1898" height="1115" fill="#F0F9FE"/>
</mask>
<g mask="url(#mask0_1633_25038)">
<path d="M238.449 575.267L729.093 993.231" stroke="url(#paint0_linear_1633_25038)"/>
<path d="M516.57 425.981L1204.97 1012.17" stroke="url(#paint1_linear_1633_25038)"/>
<path d="M1062.69 501.688L1629.94 984.868" stroke="url(#paint2_linear_1633_25038)"/>
<path d="M1382 394.844L1775.37 729.811" stroke="url(#paint3_linear_1633_25038)"/>
<path d="M170.477 644.579L661.121 1062.54" stroke="url(#paint4_linear_1633_25038)"/>
<path d="M448.591 495.656L1077.85 1031.46" stroke="url(#paint5_linear_1633_25038)"/>
<path d="M908.498 497.27L1508.53 1008.6" stroke="url(#paint6_linear_1633_25038)"/>
<path d="M1317.02 464.848L1728.91 816.107" stroke="url(#paint7_linear_1633_25038)"/>
<path d="M102.344 722.219L592.988 1140.18" stroke="url(#paint8_linear_1633_25038)"/>
<path d="M380.473 572.57L889.287 1006.1" stroke="url(#paint9_linear_1633_25038)"/>
<path d="M739.883 489.677L1369.85 1026.22" stroke="url(#paint10_linear_1633_25038)"/>
<path d="M1148.26 458.791L1638.91 876.756" stroke="url(#paint11_linear_1633_25038)"/>
<path d="M256.857 708.808L615.422 444.094" stroke="url(#paint12_linear_1633_25038)"/>
<path d="M236.423 980.033L886.689 500.019" stroke="url(#paint13_linear_1633_25038)"/>
<path d="M246.92 844.201L766.482 460.765" stroke="url(#paint14_linear_1633_25038)"/>
<path d="M218.485 1121.65L1048.04 508.922" stroke="url(#paint15_linear_1633_25038)"/>
<path d="M391.899 1106.16L1221.45 493.43" stroke="url(#paint16_linear_1633_25038)"/>
<path d="M589.566 1072.3L1419.12 459.572" stroke="url(#paint17_linear_1633_25038)"/>
<path d="M773.14 1055.56L1602.7 442.827" stroke="url(#paint18_linear_1633_25038)"/>
<path d="M865.582 1106.59L1695.14 493.86" stroke="url(#paint19_linear_1633_25038)"/>
<path d="M971.097 1156.43L1800.65 543.697" stroke="url(#paint20_linear_1633_25038)"/>
<path d="M1102.73 1203.87L1932.29 591.141" stroke="url(#paint21_linear_1633_25038)"/>
</g>
<path d="M429.149 698.185L357.437 749.674C339.332 763.795 323.488 756.473 316.968 751.484L266.914 710.93C262.656 706.867 241.655 693.469 259.31 680.722L311.901 637.345C316.835 634.5 344.147 612.264 357.437 619.241L428.034 680.722C436.639 685.02 436.603 693.674 429.149 698.185Z" fill="#DBF6FF"/>
<path d="M333.803 744.262L283.675 709.076C283.497 691.133 283.58 637.352 283.675 619.445C283.704 613.221 283.532 607.679 283.574 601.366C283.639 591.633 283.384 578.142 283.568 568.415C283.639 564.538 283.503 560.472 283.503 560.472L333.803 588.954" fill="#D2EEFA"/>
<path d="M333.062 588.948L419.257 536.422V686.901L333.062 744.987V588.948Z" fill="#BFE9F6"/>
<path d="M409.987 562.506L395.084 568.836C394.213 569.204 393.661 569.962 393.661 570.786V580.17C393.661 581.818 395.725 582.873 397.439 582.096L412.341 575.374C413.183 574.995 413.705 574.254 413.705 573.448V564.462C413.705 562.837 411.695 561.782 409.987 562.511V562.506Z" fill="white"/>
<path d="M383.889 583.853L368.945 590.201C368.079 590.568 367.533 591.315 367.533 592.139V601.558C367.533 603.194 369.579 604.237 371.281 603.473L384.861 597.344C386.534 596.591 387.577 595.109 387.577 593.503V585.791C387.577 584.179 385.585 583.135 383.889 583.853Z" fill="white"/>
<path d="M358.371 609.431L343.469 615.762C342.597 616.129 342.045 616.888 342.045 617.712V627.095C342.045 628.743 344.109 629.798 345.823 629.022L360.726 622.3C361.568 621.921 362.089 621.18 362.089 620.374V611.387C362.089 609.763 360.079 608.708 358.371 609.437V609.431Z" fill="white"/>
<path d="M410.997 590.968L395.252 597.654C394.523 597.963 394.06 598.597 394.06 599.29V609.486C394.06 610.861 395.786 611.744 397.221 611.098L412.965 603.997C413.671 603.683 414.11 603.06 414.11 602.385V592.61C414.11 591.253 412.426 590.369 410.997 590.974V590.968Z" fill="white"/>
<path d="M385.603 609.984L369.289 616.914C368.655 617.18 368.258 617.732 368.258 618.33V629.083C368.258 630.274 369.752 631.039 370.997 630.482L385.947 623.736C387.394 623.084 388.302 621.804 388.302 620.411V611.407C388.302 610.227 386.843 609.463 385.603 609.99V609.984Z" fill="white"/>
<path d="M357.968 640.555L342.62 647.07C341.826 647.407 341.322 648.101 341.322 648.854V658.664C341.322 660.169 343.208 661.13 344.773 660.424L360.12 653.501C360.885 653.157 361.366 652.476 361.366 651.74V642.339C361.366 640.857 359.527 639.891 357.968 640.555Z" fill="white"/>
<path d="M410.711 620.211L395.808 626.541C394.936 626.909 394.385 627.667 394.385 628.491V637.875C394.385 639.523 396.448 640.578 398.162 639.801L413.065 633.079C413.907 632.7 414.429 631.959 414.429 631.153V622.167C414.429 620.543 412.418 619.487 410.711 620.217V620.211Z" fill="white"/>
<path d="M385.338 640.84L370.394 647.188C369.528 647.556 368.982 648.303 368.982 649.127V658.545C368.982 660.181 371.028 661.225 372.73 660.46L386.31 654.331C387.982 653.578 389.026 652.096 389.026 650.49V642.778C389.026 641.166 387.034 640.123 385.338 640.84Z" fill="white"/>
<path d="M358.371 670.263L343.469 676.594C342.597 676.961 342.045 677.72 342.045 678.544V687.927C342.045 689.575 344.109 690.63 345.823 689.854L360.726 683.132C361.568 682.753 362.089 682.012 362.089 681.206V672.219C362.089 670.595 360.079 669.54 358.371 670.269V670.263Z" fill="white"/>
<path d="M411.72 647.955L395.976 654.642C395.246 654.95 394.784 655.584 394.784 656.278V666.473C394.784 667.848 396.509 668.732 397.944 668.085L413.689 660.984C414.395 660.67 414.834 660.048 414.834 659.372V649.597C414.834 648.24 413.149 647.357 411.72 647.961V647.955Z" fill="white"/>
<path d="M386.328 669.145L370.014 676.075C369.379 676.342 368.982 676.893 368.982 677.491V688.244C368.982 689.436 370.477 690.2 371.722 689.643L386.672 682.897C388.119 682.245 389.026 680.965 389.026 679.572V670.568C389.026 669.388 387.567 668.624 386.328 669.151V669.145Z" fill="white"/>
<path d="M357.968 698.49L342.62 705.004C341.826 705.342 341.322 706.036 341.322 706.788V716.598C341.322 718.104 343.208 719.064 344.773 718.359L360.12 711.436C360.885 711.092 361.366 710.41 361.366 709.675V700.274C361.366 698.792 359.527 697.826 357.968 698.49Z" fill="white"/>
<path d="M283.492 560.681L357.721 512.161L419.276 536.421L333.062 588.947L283.492 560.681Z" fill="#E2F4FD"/>
<path d="M288.326 570.958L325.455 592.86V595.848L288.326 574.372V570.958Z" fill="white"/>
<path d="M288.325 581.105L325.454 603.008V605.995L288.325 584.52V581.105Z" fill="white"/>
<path d="M288.326 591.04L325.455 612.942V615.93L288.326 594.454V591.04Z" fill="white"/>
<path d="M288.325 600.839L325.454 622.735V625.723L288.325 604.247V600.839Z" fill="white"/>
<path d="M288.326 610.986L325.455 632.883V635.87L288.326 614.395V610.986Z" fill="white"/>
<path d="M288.325 620.915L325.454 642.817V645.805L288.325 624.329V620.915Z" fill="white"/>
<path d="M288.325 630.713L325.454 652.609V655.597L288.325 634.121V630.713Z" fill="white"/>
<path d="M288.325 640.861L325.454 662.758V665.745L288.325 644.27V640.861Z" fill="white"/>
<path d="M288.326 650.79L325.455 672.692V675.68L288.326 654.204V650.79Z" fill="white"/>
<path d="M288.326 660.588L325.455 682.484V685.472L288.326 663.996V660.588Z" fill="white"/>
<path d="M288.325 670.736L325.454 692.633V695.62L288.325 674.145V670.736Z" fill="white"/>
<path d="M288.325 680.671L325.454 702.567V705.555L288.325 684.079V680.671Z" fill="white"/>
<path d="M288.325 690.065L325.454 711.968V714.955L288.325 693.48V690.065Z" fill="white"/>
<path d="M298.337 558.871L356.996 520.852L402.257 537.146L400.085 538.232L356.996 523.024L299.785 559.595L298.337 558.871Z" fill="#98BCC9"/>
<path d="M299.785 559.595L334.546 578.424L400.085 538.232L356.996 523.386L299.785 559.595Z" fill="#EEF9FE"/>
<path d="M282.951 696.906L286.847 697.013L286.029 723.248H282.334L282.951 696.906Z" fill="#54A5BF"/>
<path d="M286.47 697.62C294.897 697.404 301.56 690.655 301.352 682.545C301.144 674.436 294.143 668.037 285.716 668.253C277.288 668.469 270.625 675.219 270.834 683.328C271.042 691.438 278.042 697.837 286.47 697.62Z" fill="#99DAF2"/>
<path d="M294.072 695.732C278.173 692.086 275.819 678.032 276.021 671.772C272.172 674.718 267.333 683.722 273.667 692.098C279.567 699.899 289.216 698.903 294.072 695.732Z" fill="#54A5BF"/>
<path d="M426.267 701.201H423.124L422.43 678.913L425.739 678.818L426.261 701.195L426.267 701.201Z" fill="#54A5BF"/>
<path d="M435.993 667.24C436.17 660.351 430.509 654.617 423.348 654.434C416.188 654.25 410.24 659.686 410.063 666.574C409.886 673.463 415.547 679.197 422.708 679.38C429.868 679.564 435.816 674.128 435.993 667.24Z" fill="#99DAF2"/>
<path d="M433.64 674.74C439.019 667.627 434.909 659.974 431.636 657.473C431.807 662.79 429.809 674.728 416.3 677.828C420.427 680.519 428.623 681.367 433.634 674.74H433.64Z" fill="#54A5BF"/>
<path d="M417.106 704.581H414.834L414.33 688.482L416.72 688.417L417.1 704.587L417.106 704.581Z" fill="#54A5BF"/>
<path d="M424.118 680.042C424.246 675.064 420.156 670.921 414.983 670.789C409.81 670.656 405.513 674.584 405.385 679.561C405.257 684.539 409.347 688.682 414.52 688.814C419.693 688.947 423.99 685.02 424.118 680.042Z" fill="#99DAF2"/>
<path d="M422.43 685.464C426.315 680.325 423.349 674.794 420.983 672.992C421.108 676.833 419.661 685.458 409.906 687.698C412.889 689.643 418.813 690.253 422.43 685.47V685.464Z" fill="#54A5BF"/>
<path d="M1344.8 548.597L1140.15 690.723C1134.77 694.464 1134.38 702.29 1139.37 706.545L1244.02 795.799C1247.56 798.82 1252.72 798.997 1256.46 796.228L1456.04 648.458C1461.23 644.611 1461.47 636.92 1456.52 632.763L1356.94 549.152C1353.48 546.25 1348.51 546.022 1344.8 548.597Z" fill="#DBF6FF"/>
<path d="M1188.08 710.148C1181.28 704.65 1181.74 694.138 1188.99 689.253L1293.67 618.775C1298.5 615.519 1304.92 615.881 1309.36 619.659L1367.46 669.116C1374.01 674.691 1373.43 684.975 1366.31 689.789L1263.47 759.242C1258.73 762.439 1252.46 762.171 1248.02 758.58L1188.08 710.148Z" fill="#CCF3FF"/>
<path d="M1211.19 712.344C1204.53 707.455 1204.69 697.454 1211.5 692.778L1293.51 636.483C1298.15 633.295 1304.32 633.461 1308.79 636.895L1349.54 668.226C1356.61 673.655 1356.24 684.419 1348.82 689.355L1267.77 743.292C1263.23 746.317 1257.28 746.179 1252.88 742.949L1211.19 712.344Z" fill="#EBFAFF"/>
<path d="M1241.99 750.458L1244.84 750.537L1244.24 769.771L1241.53 769.771L1241.99 750.458Z" fill="#78C7E0"/>
<ellipse cx="1243.34" cy="740.192" rx="11.1873" ry="10.7706" transform="rotate(-1.47466 1243.34 740.192)" fill="#C1F0FF"/>
<path d="M1249.18 749.598C1237.52 746.923 1235.47 736.811 1235.62 732.222C1232.8 734.38 1229.58 740.793 1234.22 746.933C1238.54 752.652 1245.61 751.92 1249.18 749.598Z" fill="#78C7E0"/>
<path d="M1268.17 776.092L1244.24 769.771L1241.53 769.771L1254.18 774.286L1266.37 778.801L1268.17 776.092Z" fill="url(#paint22_linear_1633_25038)"/>
<path d="M1183.33 700.489L1186.18 700.569L1185.58 719.802L1182.87 719.802L1183.33 700.489Z" fill="#78C7E0"/>
<ellipse cx="1184.68" cy="690.223" rx="11.1873" ry="10.7706" transform="rotate(-1.47466 1184.68 690.223)" fill="#C1F0FF"/>
<path d="M1190.52 699.629C1178.86 696.954 1176.81 686.843 1176.96 682.253C1174.14 684.411 1170.92 690.824 1175.56 696.964C1179.88 702.683 1186.95 701.952 1190.52 699.629Z" fill="#78C7E0"/>
<path d="M1209.51 726.124L1185.58 719.803L1182.87 719.803L1195.52 724.318L1207.71 728.833L1209.51 726.124Z" fill="url(#paint23_linear_1633_25038)"/>
<path d="M1217.84 680.979C1203 690.756 1198.65 699.084 1206.25 708.86C1199.74 699.084 1258.65 656.927 1278.12 644.911C1293.71 635.299 1305.21 636.456 1309.02 638.236C1335.35 648.917 1352.9 678.083 1353.99 684.962C1371 673.013 1331.85 644.689 1319.09 638.236C1305.12 631.294 1294.24 629.562 1281.21 638.236L1217.84 680.979Z" fill="#C4ECF9"/>
<path d="M1249.16 664.086C1223.09 683.277 1196.12 699.083 1206.62 708.498C1204.85 701.019 1278.71 639.471 1300.94 639.471C1318.72 639.471 1354.53 670.966 1353.99 686.048C1364.13 674.823 1334.8 651.649 1318.46 642.144C1304.73 634.157 1292.42 637.244 1288.15 639.471C1283.21 642.144 1269.9 648.819 1249.16 664.086Z" fill="#88D8F1"/>
<path d="M1281.57 660.702C1286.88 661.426 1301.12 664.323 1315.61 670.117C1330.09 675.91 1337.81 676.393 1339.87 675.91" stroke="white" stroke-width="2" stroke-linecap="round"/>
<path d="M1268.53 668.306C1273.85 669.03 1288.09 671.927 1302.57 677.72C1317.05 683.514 1324.78 683.996 1326.83 683.514" stroke="white" stroke-width="2" stroke-linecap="round"/>
<path d="M1268.53 678.444C1272.62 678.991 1283.59 681.178 1294.75 685.551C1305.9 689.924 1311.85 690.289 1313.43 689.924" stroke="white" stroke-width="2" stroke-linecap="round"/>
<path d="M1250.43 682.79C1253 683.132 1259.9 684.498 1266.92 687.232C1273.94 689.965 1277.68 690.193 1278.67 689.965" stroke="white" stroke-width="2" stroke-linecap="round"/>
<path d="M1298.95 656.719C1301.52 657.06 1308.42 658.427 1315.44 661.16C1322.46 663.894 1326.2 664.122 1327.19 663.894" stroke="white" stroke-width="2" stroke-linecap="round"/>
<path d="M1316.22 611.944L1312.16 563.786L1390.72 617.084L1393.7 671.327L1316.22 611.944Z" fill="#D1EDF8"/>
<path d="M1436.52 594.986L1439.58 638.08L1393.69 671.327L1390.72 617.084L1436.52 594.986Z" fill="#C0E7F4"/>
<path d="M1354.89 536.991L1436.72 594.926L1390.73 617.014L1311.8 564.656L1354.89 536.991Z" fill="#DDF2FC"/>
<path d="M1324.28 608.281L1322.76 581.891L1350.33 599.995V626.79L1324.28 608.281Z" fill="white"/>
<path d="M1379.81 625.704L1382.04 662.276L1368.16 651.775L1366.07 615.928L1379.81 625.704Z" fill="white"/>
<path d="M1402.22 623.587L1404.13 647.067L1429.56 631.867L1427.66 610.961L1402.22 623.587Z" fill="white"/>
<path d="M1366.11 615.928L1365.39 615.565L1367.56 651.05L1368.29 651.775L1366.11 615.928Z" fill="#7EA4B2"/>
<path d="M1324.28 608.28L1322.66 581.166L1350.39 599.271V599.995L1323.02 582.252L1324.76 608.523L1324.28 608.28Z" fill="#7EA4B2"/>
<path d="M1427.66 610.961L1429.56 631.867L1428.05 632.514L1426.42 611.571L1427.66 610.961Z" fill="#7EA4B2"/>
<path d="M1325.13 567.371L1354.16 586.96L1386.03 566.321L1355.72 545.682L1325.13 567.371Z" fill="#EEF9FE"/>
<path d="M1324.83 567.371L1355.61 545.682L1386.03 566.321L1384.94 567.045L1355.42 547.492L1326.55 568.254L1324.83 567.371Z" fill="#7EA4B2"/>
<path d="M1056.54 810.236L1056.71 850.066L1015.88 819.415L1015.76 787.154L1036.26 772.579L1056.54 810.236Z" fill="#DBF6FF"/>
<path d="M1056.54 810.237L1096.01 787.787L1076.09 754.112L1036.26 772.579L1056.54 810.237Z" fill="#D0F4FF"/>
<path d="M1056.71 850.067L1096.27 820.193L1096.01 787.787L1056.54 810.236L1056.71 850.067Z" fill="#BFE9F6"/>
<path d="M1102.16 851.517L1102.34 891.347L1061.51 860.696L1061.39 828.435L1081.89 813.859L1102.16 851.517Z" fill="#DBF6FF"/>
<path d="M1102.16 851.517L1141.63 829.067L1121.72 795.393L1081.89 813.859L1102.16 851.517Z" fill="#D0F4FF"/>
<path d="M1102.34 891.347L1141.89 861.473L1141.63 829.067L1102.16 851.517L1102.34 891.347Z" fill="#BFE9F6"/>
<path d="M1518.97 447.309L1423.74 517.121C1418.44 521.011 1418.27 528.879 1423.4 532.992L1508.96 601.496C1512.5 604.332 1517.51 604.428 1521.15 601.732L1606.94 538.312C1611.88 534.659 1612.39 527.454 1608.01 523.143L1531.89 448.246C1528.4 444.806 1522.92 444.409 1518.97 447.309Z" fill="#DBF6FF"/>
<path d="M1502.23 438.276L1595.28 386.362V521.167L1502.23 581.684V438.276Z" fill="white"/>
<path d="M1436.5 397.678L1502.23 438.602L1516.09 430.547V572.632L1523.82 567.563V426.231L1541.71 416.249V555.976L1550.64 550.183V411.27L1570.47 400.209V537.325L1577.77 532.603V396.131L1595.28 386.363L1524.79 344.152L1436.5 397.678Z" fill="#C0E7F4"/>
<path d="M1449.48 396.451L1522.46 355.9L1573.88 388.466L1572.2 389.456L1522.47 358.597L1453.34 398.152L1449.48 396.451Z" fill="#7EA4B2"/>
<path d="M1453.34 398.152L1501.64 428.596L1572.2 389.457L1522.47 358.598L1453.34 398.152Z" fill="#EEF9FE"/>
<path d="M1502.23 581.685V438.603L1436.5 397.679V532.329L1502.23 581.685Z" fill="#D1EDF8"/>
<path d="M1417.56 491.198L1435.79 477.428L1502.23 515.489L1490.07 535.334L1417.56 491.198Z" fill="#98BCC9"/>
<path d="M1445.4 421.945L1455.04 426.764C1455.6 427.043 1455.96 427.624 1455.96 428.252V435.395C1455.96 436.646 1454.62 437.452 1453.51 436.865L1443.88 431.749C1443.33 431.459 1442.99 430.896 1442.99 430.279V423.439C1442.99 422.206 1444.29 421.4 1445.4 421.951V421.945Z" fill="white"/>
<path d="M1462.28 433.237L1471.95 438.068C1472.51 438.347 1472.86 438.916 1472.86 439.544V446.717C1472.86 447.962 1471.54 448.756 1470.44 448.175L1461.66 443.51C1460.58 442.935 1459.9 441.809 1459.9 440.588V434.719C1459.9 433.492 1461.19 432.698 1462.28 433.243V433.237Z" fill="white"/>
<path d="M1479.46 443.806L1489.09 448.626C1489.66 448.904 1490.01 449.485 1490.01 450.113V457.256C1490.01 458.507 1488.68 459.313 1487.57 458.726L1477.93 453.611C1477.39 453.32 1477.05 452.757 1477.05 452.141V445.3C1477.05 444.067 1478.35 443.261 1479.46 443.812V443.806Z" fill="white"/>
<path d="M1444.75 443.611L1454.93 448.697C1455.4 448.934 1455.7 449.414 1455.7 449.942V457.701C1455.7 458.75 1454.59 459.42 1453.65 458.928L1443.47 453.522C1443.02 453.279 1442.73 452.811 1442.73 452.295V444.856C1442.73 443.825 1443.82 443.149 1444.75 443.611Z" fill="white"/>
<path d="M1461.64 454.779L1472.18 460.055C1472.59 460.257 1472.85 460.677 1472.85 461.134V469.314C1472.85 470.221 1471.88 470.802 1471.08 470.381L1461.41 465.248C1460.47 464.75 1459.89 463.777 1459.89 462.716V455.864C1459.89 454.969 1460.83 454.388 1461.63 454.785L1461.64 454.779Z" fill="white"/>
<path d="M1453.84 521.577L1466.81 529.722L1466.08 554.528L1453.41 545.113L1453.84 521.577Z" fill="white"/>
<path d="M1479.25 463.711L1489.17 468.673C1489.69 468.928 1490.02 469.455 1490.02 470.03V477.499C1490.02 478.643 1488.8 479.378 1487.79 478.839L1477.87 473.569C1477.37 473.308 1477.06 472.787 1477.06 472.229V465.075C1477.06 463.949 1478.25 463.213 1479.26 463.717L1479.25 463.711Z" fill="white"/>
<path d="M1584.24 544.055H1581.09L1580.4 521.768L1583.71 521.673L1584.23 544.049L1584.24 544.055Z" fill="#54A5BF"/>
<path d="M1593.96 510.094C1594.14 503.205 1588.48 497.472 1581.32 497.288C1574.16 497.104 1568.21 502.54 1568.03 509.429C1567.86 516.318 1573.52 522.051 1580.68 522.235C1587.84 522.419 1593.79 516.983 1593.96 510.094Z" fill="#99DAF2"/>
<path d="M1591.61 517.594C1596.99 510.481 1592.88 502.829 1589.61 500.327C1589.78 505.644 1587.78 517.582 1574.27 520.682C1578.4 523.374 1586.59 524.221 1591.6 517.594H1591.61Z" fill="#54A5BF"/>
<path d="M1575.08 547.433H1572.8L1572.3 531.334L1574.69 531.269L1575.07 547.439L1575.08 547.433Z" fill="#54A5BF"/>
<path d="M1582.09 522.893C1582.22 517.916 1578.13 513.773 1572.95 513.64C1567.78 513.508 1563.48 517.435 1563.36 522.413C1563.23 527.391 1567.32 531.533 1572.49 531.666C1577.66 531.799 1581.96 527.871 1582.09 522.893Z" fill="#99DAF2"/>
<path d="M1580.4 528.316C1584.29 523.177 1581.32 517.647 1578.95 515.845C1579.08 519.686 1577.63 528.31 1567.88 530.551C1570.86 532.495 1576.78 533.106 1580.4 528.322V528.316Z" fill="#54A5BF"/>
<path d="M980.722 609.201L906.734 649.441L994.719 712.239L1067.72 670.399L980.722 609.201Z" fill="#DBF7FF"/>
<path d="M906.755 657.865L906.733 649.31L994.704 712.183L994.722 719.134L906.755 657.865Z" fill="#C4ECF9"/>
<path d="M903.92 725.742L906.754 657.657L994.722 719.116L991.554 795.077L903.92 725.742Z" fill="#D0F4FF"/>
<path d="M935.787 702.826L933.447 749.124L956.818 767.539L959.415 719.261L935.787 702.826Z" fill="#88D8F1"/>
<path d="M938.319 709.715L936.447 747.144L954.174 759.396L954.168 757.258L938.41 746.07L940.289 711.314L938.319 709.715Z" fill="#71CEEB"/>
<path d="M954.205 757.218L956.082 721.841L940.326 711.161L938.447 746.003L954.205 757.218Z" fill="#C1F0FF"/>
<path d="M1067.25 678.336L1067.72 670.318L994.704 712.187L994.722 719.135L1067.25 678.336Z" fill="#B2E6F7"/>
<path d="M1065.12 746.091L1067.41 678.303L994.669 719.048L991.554 795.077L1065.12 746.091Z" fill="#BFEAF7"/>
<path d="M910.172 674.469L907.834 720.892L931.073 737.603L933.774 690.95L910.172 674.469Z" fill="#88D8F1"/>
<path d="M912.643 681.399L910.774 718.751L928.475 730.978L928.469 728.844L912.734 717.679L914.611 682.995L912.643 681.399Z" fill="#71CEEB"/>
<path d="M934.755 690.947L933.773 690.95L931.073 737.604L932.151 737.991L934.755 690.947Z" fill="#71CEEB"/>
<path d="M928.47 728.844L930.344 693.626L914.611 682.995L912.735 717.679L928.47 728.844Z" fill="#C1F0FF"/>
<path d="M909.529 674.014L903.661 682.566L929.224 698.507L935.094 690.49L909.529 674.014Z" fill="#88D8F1"/>
<mask id="mask1_1633_25038" style="mask-type:alpha" maskUnits="userSpaceOnUse" x="903" y="674" width="33" height="25">
<path d="M909.529 674.014L903.661 682.566L929.224 698.507L935.094 690.49L909.529 674.014Z" fill="#88D8F1"/>
</mask>
<g mask="url(#mask1_1633_25038)">
<path d="M906.613 685.641L913.216 676.14L915.429 677.912L908.825 686.821L906.613 685.641Z" fill="#71CEEB"/>
<path d="M910.545 687.765L917.147 678.264L919.36 680.036L912.756 688.945L910.545 687.765Z" fill="#71CEEB"/>
<path d="M914.477 689.819L921.079 680.388L923.293 682.265L916.689 691.069L914.477 689.819Z" fill="#71CEEB"/>
<path d="M919.063 692.149L925.259 683.578L927.227 685.352L921.36 694.259L919.063 692.149Z" fill="#71CEEB"/>
<path d="M923.325 694.847L929.376 685.703L932.14 687L925.54 697.45L923.325 694.847Z" fill="#71CEEB"/>
<path d="M927.258 697.446L933.127 688.894L935.094 690.49L929.224 698.508L927.258 697.446Z" fill="#71CEEB"/>
<path d="M903.66 682.566L909.529 674.014L911.495 675.077L905.137 684.163L903.66 682.566Z" fill="#71CEEB"/>
<path d="M905.136 684.163L911.494 675.077L913.46 676.139L907.102 685.225L905.136 684.163Z" fill="#A5E9FF"/>
<path d="M908.579 686.703L915.181 677.201L917.395 678.974L910.791 687.883L908.579 686.703Z" fill="#A5E9FF"/>
<path d="M912.511 688.827L919.114 679.325L921.327 681.098L914.723 690.007L912.511 688.827Z" fill="#A5E9FF"/>
<path d="M916.89 690.884L923.213 682.34L925.26 683.516L919.064 692.331L916.89 690.884Z" fill="#A5E9FF"/>
<path d="M921.36 694.14L927.226 684.64L929.194 686.414L923.326 695.321L921.36 694.14Z" fill="#A5E9FF"/>
<path d="M925.291 696.264L931.894 686.763L934.107 688.536L927.503 697.444L925.291 696.264Z" fill="#A5E9FF"/>
</g>
<path d="M904.354 684.565C903.534 684.344 903.516 683.115 903.681 682.57L905.686 683.291C905.354 683.836 905.022 684.744 904.354 684.565Z" fill="#71CEEB"/>
<path d="M915.808 691.432C914.988 691.211 914.886 689.982 915.051 689.437L917.39 689.976C916.891 690.884 916.477 691.611 915.808 691.432Z" fill="#71CEEB"/>
<path d="M924.236 696.854C923.416 696.634 923.314 695.405 923.479 694.86L925.818 695.399C925.319 696.307 924.905 697.034 924.236 696.854Z" fill="#71CEEB"/>
<path d="M928.098 699.385C927.096 699.206 927.092 697.573 927.258 697.028L929.431 698.111C928.932 699.02 928.778 699.506 928.098 699.385Z" fill="#71CEEB"/>
<path d="M920.239 694.686C919.237 694.416 918.899 692.875 919.231 692.148L922.071 692.867C921.573 693.957 920.907 694.866 920.239 694.686Z" fill="#71CEEB"/>
<path d="M908.117 686.732C907.297 686.512 907.279 685.283 907.444 684.738L909.449 685.459C909.117 686.004 908.785 686.912 908.117 686.732Z" fill="#71CEEB"/>
<path d="M906.193 685.65C905.373 685.429 904.854 684.383 905.853 683.11L907.526 684.557C907.36 684.921 906.861 685.829 906.193 685.65Z" fill="#A5E9FF"/>
<path d="M913.885 690.528C913.065 690.307 912.212 689.08 913.044 687.989L915.217 689.254L915.217 689.254C915.051 689.618 914.553 690.708 913.885 690.528Z" fill="#A5E9FF"/>
<path d="M911.795 688.901C910.975 688.681 910.957 687.452 911.123 686.907L913.543 687.264C913.045 688.172 912.464 689.081 911.795 688.901Z" fill="#71CEEB"/>
<path d="M910.205 687.816C909.385 687.595 908.532 686.368 909.697 685.095L911.704 686.542C911.538 686.905 910.873 687.996 910.205 687.816Z" fill="#A5E9FF"/>
<path d="M917.803 693.241C917.23 693.242 916.059 692.156 917.057 690.702L919.302 691.967C919.136 692.33 918.566 693.239 917.803 693.241Z" fill="#A5E9FF"/>
<path d="M922.209 695.951C921.636 695.953 920.741 695.048 921.739 693.594L923.708 694.677C923.542 695.041 922.972 695.95 922.209 695.951Z" fill="#A5E9FF"/>
<path d="M926.259 698.301C925.686 698.302 924.754 697.579 925.418 696.125L927.758 697.027C927.592 697.39 927.021 698.299 926.259 698.301Z" fill="#A5E9FF"/>
<path d="M963.769 710.096L961.431 756.519L985.033 773L987.37 726.576L963.769 710.096Z" fill="#88D8F1"/>
<path d="M966.24 717.026L964.371 754.378L982.072 766.605L982.066 764.471L966.331 753.306L968.208 718.622L966.24 717.026Z" fill="#71CEEB"/>
<path d="M988.352 726.574L987.37 726.577L985.032 773L986.015 773.531L988.352 726.574Z" fill="#71CEEB"/>
<path d="M982.066 764.471L983.941 729.253L968.207 718.622L966.331 753.306L982.066 764.471Z" fill="#C1F0FF"/>
<path d="M963.745 710.046L957.877 718.597L983.44 734.539L989.31 726.521L963.745 710.046Z" fill="#88D8F1"/>
<mask id="mask2_1633_25038" style="mask-type:alpha" maskUnits="userSpaceOnUse" x="957" y="710" width="33" height="25">
<path d="M963.745 710.046L957.877 718.597L983.44 734.539L989.31 726.521L963.745 710.046Z" fill="#88D8F1"/>
</mask>
<g mask="url(#mask2_1633_25038)">
<path d="M960.83 721.672L967.433 712.171L969.646 713.944L963.042 722.852L960.83 721.672Z" fill="#71CEEB"/>
<path d="M964.762 723.796L971.364 714.295L973.577 716.068L966.973 724.977L964.762 723.796Z" fill="#71CEEB"/>
<path d="M968.694 725.852L975.296 716.42L977.51 718.297L970.906 727.102L968.694 725.852Z" fill="#71CEEB"/>
<path d="M973.28 728.181L979.476 719.61L981.444 721.384L975.577 730.291L973.28 728.181Z" fill="#71CEEB"/>
<path d="M977.541 730.878L983.592 721.734L986.356 723.031L979.756 733.481L977.541 730.878Z" fill="#71CEEB"/>
<path d="M981.474 733.477L987.343 724.926L989.31 726.521L983.44 734.539L981.474 733.477Z" fill="#71CEEB"/>
<path d="M957.877 718.597L963.746 710.046L965.712 711.108L959.354 720.194L957.877 718.597Z" fill="#71CEEB"/>
<path d="M959.353 720.194L965.711 711.108L967.677 712.17L961.319 721.256L959.353 720.194Z" fill="#A5E9FF"/>
<path d="M962.796 722.734L969.399 713.232L971.612 715.005L965.008 723.914L962.796 722.734Z" fill="#A5E9FF"/>
<path d="M966.728 724.858L973.331 715.356L975.544 717.129L968.94 726.038L966.728 724.858Z" fill="#A5E9FF"/>
<path d="M971.107 726.916L977.43 718.371L979.477 719.547L973.281 728.362L971.107 726.916Z" fill="#A5E9FF"/>
<path d="M975.577 730.172L981.443 720.673L983.411 722.446L977.543 731.353L975.577 730.172Z" fill="#A5E9FF"/>
<path d="M979.508 732.295L986.111 722.794L988.324 724.567L981.72 733.476L979.508 732.295Z" fill="#A5E9FF"/>
</g>
<path d="M958.569 720.596C957.749 720.375 957.731 719.146 957.896 718.601L959.901 719.322C959.569 719.867 959.237 720.776 958.569 720.596Z" fill="#71CEEB"/>
<path d="M970.023 727.463C969.203 727.242 969.1 726.013 969.266 725.469L971.604 726.007C971.106 726.916 970.691 727.643 970.023 727.463Z" fill="#71CEEB"/>
<path d="M978.452 732.885C977.632 732.664 977.529 731.435 977.695 730.89L980.033 731.429C979.535 732.338 979.12 733.064 978.452 732.885Z" fill="#71CEEB"/>
<path d="M982.313 735.416C981.31 735.237 981.306 733.604 981.472 733.059L983.645 734.143C983.146 735.051 982.992 735.538 982.313 735.416Z" fill="#71CEEB"/>
<path d="M974.453 730.717C973.451 730.448 973.113 728.906 973.445 728.179L976.285 728.898C975.787 729.988 975.122 730.897 974.453 730.717Z" fill="#71CEEB"/>
<path d="M962.331 722.763C961.511 722.542 961.493 721.313 961.658 720.768L963.664 721.489C963.331 722.034 963 722.943 962.331 722.763Z" fill="#71CEEB"/>
<path d="M960.408 721.68C959.588 721.459 959.07 720.413 960.068 719.14L961.741 720.588C961.575 720.951 961.077 721.86 960.408 721.68Z" fill="#A5E9FF"/>
<path d="M968.099 726.559C967.279 726.338 966.426 725.112 967.258 724.021L969.432 725.285L969.432 725.285C969.266 725.649 968.768 726.739 968.099 726.559Z" fill="#A5E9FF"/>
<path d="M966.01 724.932C965.19 724.711 965.171 723.482 965.337 722.937L967.758 723.294C967.259 724.203 966.678 725.112 966.01 724.932Z" fill="#71CEEB"/>
<path d="M964.419 723.846C963.599 723.626 962.746 722.399 963.912 721.126L965.919 722.572C965.753 722.936 965.088 724.026 964.419 723.846Z" fill="#A5E9FF"/>
<path d="M972.017 729.272C971.444 729.273 970.273 728.188 971.271 726.733L973.517 727.998C973.351 728.361 972.78 729.27 972.017 729.272Z" fill="#A5E9FF"/>
<path d="M976.423 731.983C975.85 731.984 974.956 731.079 975.954 729.625L977.923 730.709C977.757 731.072 977.186 731.981 976.423 731.983Z" fill="#A5E9FF"/>
<path d="M980.473 734.332C979.9 734.334 978.969 733.61 979.633 732.157L981.972 733.058C981.806 733.421 981.236 734.33 980.473 734.332Z" fill="#A5E9FF"/>
<path d="M1014.98 763.367L1017.96 763.519L1016.72 783.527L1013.72 785.168L1014.98 763.367Z" fill="#78C7E0"/>
<ellipse cx="1016.65" cy="752.677" rx="11.6861" ry="11.2508" transform="rotate(-0.143998 1016.65 752.677)" fill="#C1F0FF"/>
<path d="M1022.51 762.644C1010.41 759.568 1008.51 748.959 1008.78 744.169C1005.78 746.354 1002.26 752.974 1006.96 759.499C1011.33 765.576 1018.74 764.983 1022.51 762.644Z" fill="#78C7E0"/>
<path d="M1055.66 741.28L1058.79 741.44L1057.48 762.44L1054.33 764.162L1055.66 741.28Z" fill="#78C7E0"/>
<ellipse cx="1057.4" cy="730.06" rx="12.2659" ry="11.809" transform="rotate(-0.143998 1057.4 730.06)" fill="#C1F0FF"/>
<path d="M1063.56 740.521C1050.86 737.293 1048.86 726.157 1049.14 721.13C1045.99 723.423 1042.31 730.372 1047.24 737.22C1051.83 743.598 1059.6 742.977 1063.56 740.521Z" fill="#78C7E0"/>
<path d="M1033.92 747.683L1037.52 747.866L1036.02 772.01L1032.4 773.99L1033.92 747.683Z" fill="#78C7E0"/>
<ellipse cx="1035.92" cy="734.784" rx="14.102" ry="13.5767" transform="rotate(-0.143998 1035.92 734.784)" fill="#C1F0FF"/>
<path d="M1043 746.81C1028.4 743.098 1026.1 730.295 1026.43 724.516C1022.81 727.153 1018.57 735.141 1024.24 743.014C1029.51 750.348 1038.45 749.633 1043 746.81Z" fill="#78C7E0"/>
<path d="M741.9 722.553L670.188 774.042C652.084 788.163 636.758 779.527 629.719 775.852L579.665 735.298C575.081 732.719 549.974 716.469 572.062 705.09L629.719 673.775C634.653 670.93 659.796 651.92 673.085 658.896L740.785 705.09C749.39 709.388 749.355 718.042 741.9 722.553Z" fill="#C0E7F4"/>
<path d="M720.174 724.348L661.506 763.288C650.395 769.623 639.282 760.677 634.3 756.639L596.778 726.733C593.548 723.914 579.072 715.742 590.759 707.677L641.844 676.306C645.681 673.666 658.02 665.66 667.431 673.311L721.917 707.677C728.021 712.41 725.989 720.154 720.174 724.348Z" fill="#D2EEFA"/>
<path d="M612.075 721.118L653.39 745.699V561.82L612.075 535.276V721.118Z" fill="#D8F4FF"/>
<path d="M616.977 546.924L629.288 554.528L628.202 637.085L616.977 630.929V546.924Z" fill="#EBFAFF"/>
<path d="M636.168 557.062L648.479 564.666L647.393 647.223L636.168 641.068V557.062Z" fill="#EBFAFF"/>
<path d="M616.977 546.924L618.063 547.577V629.119L628.202 635.274V637.447L616.615 630.929L616.977 546.924Z" fill="#BDE3EF"/>
<path d="M636.168 557.062L637.616 557.787V639.257L647.393 645.413V647.586L636.168 641.068V557.062Z" fill="#BDE3EF"/>
<path d="M616.977 635.274L629.288 642.878L628.202 725.435L616.977 719.28V635.274Z" fill="#EBFAFF"/>
<path d="M636.168 645.412L648.479 653.016L647.392 735.573L636.168 729.417V645.412Z" fill="#EBFAFF"/>
<path d="M616.977 635.274L618.063 635.928V717.469L628.202 723.625V725.797L616.615 719.28L616.977 635.274Z" fill="#BDE3EF"/>
<path d="M636.168 645.412L637.616 646.136V727.607L647.393 733.763V735.935L636.168 729.417V645.412Z" fill="#BDE3EF"/>
<path d="M653.39 745.699L672.788 735.812L701.597 721.118V535.276L653.39 561.82V745.699Z" fill="#C0E7F4"/>
<path d="M661.514 561.408L673.825 554.166V637.085L661.514 643.603V561.408Z" fill="#D3F4FF"/>
<path d="M680.343 552.717L692.655 545.476V628.395L680.343 634.912V552.717Z" fill="#D3F4FF"/>
<path d="M661.514 652.654L673.825 645.412V728.331L661.514 734.849V652.654Z" fill="#D3F4FF"/>
<path d="M680.343 642.516L692.655 635.274V718.193L680.343 724.711V642.516Z" fill="#D3F4FF"/>
<path d="M672.739 636.361L661.514 643.603L673.825 636.723V554.166L672.739 554.89V636.361Z" fill="#71CEEB"/>
<path d="M691.568 627.67L680.343 634.912L692.655 628.033V545.476L691.568 546.2V627.67Z" fill="#71CEEB"/>
<path d="M672.739 727.607L661.514 734.849L673.825 727.969V645.412L672.739 646.136V727.607Z" fill="#71CEEB"/>
<path d="M691.568 717.469L680.343 724.711L692.655 717.831V635.274L691.568 635.999V717.469Z" fill="#71CEEB"/>
<path d="M612.075 535.275L656.581 508.542L701.597 535.275L653.39 561.819L612.075 535.275Z" fill="#C0E7F4"/>
<path d="M622.903 535.999L654.12 554.967L690.768 535.91L656.836 515.395L622.903 535.999Z" fill="#EEF9FE"/>
<path d="M622.903 535.999L656.836 515.395L690.768 535.91L689.446 536.763L656.836 517.102L624.024 537.018L622.903 535.999Z" fill="#7EA4B2"/>
<path d="M614.078 716.824L616.369 716.888L615.886 732.313L613.713 732.313L614.078 716.824Z" fill="#78C7E0"/>
<ellipse cx="615.165" cy="708.59" rx="8.972" ry="8.63779" transform="rotate(-1.46459 615.165 708.59)" fill="#C1F0FF"/>
<path d="M619.844 716.136C610.499 713.989 608.853 705.879 608.974 702.198C606.711 703.929 604.13 709.072 607.85 713.996C611.316 718.583 616.989 717.998 619.844 716.136Z" fill="#78C7E0"/>
<path d="M626.81 711.393L630.411 711.493L629.647 735.209L626.026 735.208L626.81 711.393Z" fill="#78C7E0"/>
<ellipse cx="628.517" cy="698.45" rx="14.102" ry="13.5767" transform="rotate(-1.46459 628.517 698.45)" fill="#C1F0FF"/>
<path d="M635.872 710.31C621.184 706.936 618.596 694.19 618.787 688.404C615.229 691.124 611.172 699.207 617.02 706.948C622.468 714.158 631.383 713.237 635.872 710.31Z" fill="#78C7E0"/>
<path d="M635.083 737.387L615.893 732.315L613.72 732.314L623.858 735.937L633.634 739.56L635.083 737.387Z" fill="url(#paint24_linear_1633_25038)"/>
<path d="M648.112 740.282L629.646 735.21L626.025 735.209L636.887 738.832L646.663 742.454L648.112 740.282Z" fill="url(#paint25_linear_1633_25038)"/>
<path d="M431.953 810.9L432.512 843.29L470.955 814.508L470.955 787.937L450.761 774.289L431.953 810.9Z" fill="#C3EAF7"/>
<path d="M431.949 811.25L395.378 785.179L413.314 752.126L450.778 774.317L431.949 811.25Z" fill="#DBF6FF"/>
<path d="M432.512 843.29L395.379 817.043L395.379 785.179L431.949 810.642L432.512 843.29Z" fill="#D0F4FF"/>
<path d="M388.135 842.027L366.401 855.215V882.041L388.859 868.94L388.135 842.027Z" fill="#C3EAF7"/>
<path d="M366.401 855.216L337.08 837.748L359.892 824.285L388.235 842.115L366.401 855.216Z" fill="#DBF6FF"/>
<path d="M337.704 865.821L366.41 881.858V855.063L337.08 837.683L337.704 865.821Z" fill="#D0F4FF"/>
<path d="M425.793 877.513L404.059 890.701V917.526L426.517 904.425L425.793 877.513Z" fill="#C3EAF7"/>
<path d="M404.059 890.701L374.738 873.233L397.55 859.771L425.894 877.6L404.059 890.701Z" fill="#DBF6FF"/>
<path d="M375.362 901.306L404.068 917.343V890.548L374.738 873.168L375.362 901.306Z" fill="#D0F4FF"/>
<path d="M882.03 747.884L860.296 761.072V787.897L882.754 774.796L882.03 747.884Z" fill="#C3EAF7"/>
<path d="M860.296 761.072L830.975 743.604L853.787 730.142L882.131 747.971L860.296 761.072Z" fill="#DBF6FF"/>
<path d="M831.599 771.678L860.305 787.714V760.919L830.975 743.539L831.599 771.678Z" fill="#D0F4FF"/>
<path d="M925.481 787.713L903.746 800.901V827.726L926.205 814.625L925.481 787.713Z" fill="#C3EAF7"/>
<path d="M903.747 800.901L874.426 783.434L897.238 769.971L925.581 787.8L903.747 800.901Z" fill="#DBF6FF"/>
<path d="M875.05 811.507L903.755 827.543V800.749L874.426 783.368L875.05 811.507Z" fill="#D0F4FF"/>
<path d="M969.656 827.545L947.922 840.733V867.558L970.38 854.458L969.656 827.545Z" fill="#C3EAF7"/>
<path d="M947.922 840.733L918.601 823.266L941.413 809.803L969.757 827.632L947.922 840.733Z" fill="#DBF6FF"/>
<path d="M919.225 851.339L947.931 867.375V840.581L918.601 823.2L919.225 851.339Z" fill="#D0F4FF"/>
<path d="M739.027 759.212L596.437 860.607C591.171 864.352 590.786 872.034 595.653 876.287L666.745 938.407C670.316 941.527 675.588 941.71 679.367 938.845L818.402 833.431C823.477 829.583 823.71 822.035 818.882 817.881L751.343 759.781C747.857 756.782 742.774 756.547 739.027 759.212Z" fill="#DBF6FF"/>
<path d="M771.953 765.987L750.219 779.175V806.001L772.677 792.9L771.953 765.987Z" fill="#71CEEB"/>
<path d="M750.219 779.176L720.898 761.708L743.71 748.245L772.053 766.075L750.219 779.176Z" fill="#D0F4FF"/>
<path d="M721.522 789.781L750.227 805.818V779.023L720.898 761.643L721.522 789.781Z" fill="#88D8F1"/>
<path d="M806.712 794.954L784.978 808.142V834.967L807.437 821.867L806.712 794.954Z" fill="#71CEEB"/>
<path d="M784.978 808.142L755.658 790.675L778.47 777.212L806.813 795.042L784.978 808.142Z" fill="#D0F4FF"/>
<path d="M756.281 818.748L784.987 834.785V807.99L755.658 790.609L756.281 818.748Z" fill="#88D8F1"/>
<path d="M747.123 855.653C747.123 862.564 742.782 868.847 735.666 873.56C735.18 882.57 727.192 889.73 717.401 889.73C712.906 889.73 708.79 888.219 705.612 885.705C700.69 891.106 691.089 894.775 680.053 894.775C664 894.775 650.983 887.015 650.983 877.442C650.983 871.811 655.49 866.802 662.482 863.637C661.171 861.118 660.465 858.439 660.465 855.653C660.465 841.047 679.869 829.222 703.797 829.222C727.725 829.222 747.123 841.053 747.123 855.653Z" fill="#85C8D7"/>
<path d="M745.617 855.588C745.617 862.221 741.448 868.255 734.616 872.778C734.148 881.426 726.48 888.302 717.081 888.302C712.764 888.302 708.814 886.85 705.766 884.437C701.04 889.624 691.824 893.145 681.227 893.145C665.814 893.145 653.319 885.694 653.319 876.506C653.319 871.1 657.648 866.293 664.355 863.252C663.098 860.834 662.422 858.261 662.422 855.588C662.422 841.569 681.049 830.212 704.022 830.212C726.996 830.212 745.617 841.569 745.617 855.588Z" fill="#ECF8FE"/>
<path d="M626.436 871.663H623.744L623.151 852.553L625.992 852.476L626.442 871.663H626.436Z" fill="#54A5BF"/>
<path d="M634.777 842.514C634.929 836.604 630.075 831.685 623.936 831.527C617.798 831.37 612.698 836.033 612.546 841.944C612.394 847.854 617.248 852.773 623.387 852.931C629.526 853.088 634.625 848.424 634.777 842.514Z" fill="#99DAF2"/>
<path d="M632.751 848.972C637.364 842.873 633.842 836.311 631.037 834.165C631.185 838.723 629.471 848.96 617.884 851.622C621.424 853.928 628.451 854.657 632.751 848.972Z" fill="#54A5BF"/>
<path d="M748.045 872.69H744.576L743.811 848.084L747.47 847.983L748.051 872.69H748.045Z" fill="#54A5BF"/>
<path d="M758.781 835.176C758.976 827.567 752.725 821.235 744.818 821.032C736.911 820.829 730.343 826.833 730.148 834.442C729.952 842.051 736.204 848.383 744.111 848.586C752.018 848.789 758.586 842.785 758.781 835.176Z" fill="#99DAF2"/>
<path d="M756.181 843.472C762.123 835.618 757.581 827.171 753.969 824.409C754.159 830.283 751.953 843.46 737.039 846.881C741.593 849.85 750.648 850.787 756.181 843.472Z" fill="#54A5BF"/>
<path d="M639.916 875.308H637.923L637.485 861.159L639.584 861.1L639.916 875.302V875.308Z" fill="#54A5BF"/>
<path d="M646.08 853.724C646.192 849.352 642.599 845.713 638.055 845.597C633.51 845.48 629.735 848.93 629.623 853.302C629.511 857.674 633.104 861.313 637.648 861.43C642.192 861.546 645.967 858.096 646.08 853.724Z" fill="#99DAF2"/>
<path d="M644.596 858.51C648.011 853.993 645.402 849.138 643.327 847.55C643.439 850.929 642.164 858.504 633.595 860.472C636.216 862.179 641.417 862.718 644.602 858.51H644.596Z" fill="#54A5BF"/>
<path d="M1294.69 814.299L1210.46 875.365C1206.29 877.807 1206.3 882.24 1209.3 885.641L1222.94 896.773C1223.7 897.92 1230.13 903.274 1235.42 899.076L1326.45 834.958C1330.77 832.506 1328.21 828.544 1328.21 828.544L1301.87 813.54C1298.84 810.863 1294.69 814.299 1294.69 814.299Z" fill="#DBF6FF"/>
<path d="M1306.75 822.341L1292.11 832.768L1293.51 851.673L1308.66 841.267L1306.75 822.341Z" fill="#C4E8F5"/>
<path d="M1292.11 832.769L1270.53 821.992L1285.91 811.313L1306.82 822.395L1292.11 832.769Z" fill="#DDF2FC"/>
<path d="M1272.43 841.739L1293.51 851.543L1292.11 832.662L1270.53 821.944L1272.43 841.739Z" fill="#D1EDF8"/>
<path d="M1279.23 841.895L1264.6 852.322L1266 871.227L1281.14 860.821L1279.23 841.895Z" fill="#C4E8F5"/>
<path d="M1264.59 852.321L1243.01 841.544L1258.39 830.866L1279.31 841.948L1264.59 852.321Z" fill="#DDF2FC"/>
<path d="M1244.92 861.297L1266 871.101L1264.6 852.22L1243.02 841.503L1244.92 861.297Z" fill="#D1EDF8"/>
<path d="M1250.26 862.172L1235.63 872.599L1237.03 891.504L1252.18 881.098L1250.26 862.172Z" fill="#C4E8F5"/>
<path d="M1235.63 872.599L1214.05 861.822L1229.42 851.143L1250.34 862.225L1235.63 872.599Z" fill="#DDF2FC"/>
<path d="M1215.95 881.568L1237.03 891.372L1235.63 872.491L1214.05 861.773L1215.95 881.568Z" fill="#D1EDF8"/>
<path d="M1317.4 837.942L1313.93 837.988L1312.83 813.396L1316.49 813.246L1317.4 837.942L1317.4 837.942Z" fill="#54A5BF"/>
<path d="M1327.62 800.28C1327.71 792.669 1321.37 786.421 1313.46 786.325C1305.55 786.229 1299.07 792.321 1298.98 799.931C1298.88 807.542 1305.22 813.79 1313.13 813.886C1321.04 813.982 1327.52 807.89 1327.62 800.28Z" fill="#99DAF2"/>
<path d="M1325.13 808.619C1330.97 800.685 1326.31 792.3 1322.66 789.587C1322.93 795.458 1320.91 808.664 1306.04 812.285C1310.63 815.193 1319.7 816.007 1325.13 808.619Z" fill="#54A5BF"/>
</g>
<defs>
<linearGradient id="paint0_linear_1633_25038" x1="478.659" y1="492.608" x2="479.839" y2="988.431" gradientUnits="userSpaceOnUse">
<stop stop-color="#F0F9FE"/>
<stop offset="0.473958" stop-color="#BFDAEA"/>
<stop offset="1" stop-color="#F0F9FE"/>
</linearGradient>
<linearGradient id="paint1_linear_1633_25038" x1="866.286" y1="432.717" x2="855.256" y2="1005.44" gradientUnits="userSpaceOnUse">
<stop stop-color="#F0F9FE"/>
<stop offset="0.145833" stop-color="#BFDAEA"/>
<stop offset="1" stop-color="#F0F9FE"/>
</linearGradient>
<linearGradient id="paint2_linear_1633_25038" x1="1350.86" y1="507.237" x2="1341.77" y2="979.318" gradientUnits="userSpaceOnUse">
<stop stop-color="#F0F9FE"/>
<stop offset="0.145833" stop-color="#BFDAEA"/>
<stop offset="1" stop-color="#F0F9FE"/>
</linearGradient>
<linearGradient id="paint3_linear_1633_25038" x1="1581.84" y1="398.692" x2="1575.54" y2="725.963" gradientUnits="userSpaceOnUse">
<stop stop-color="#F0F9FE"/>
<stop offset="0.145833" stop-color="#BFDAEA"/>
<stop offset="1" stop-color="#F0F9FE"/>
</linearGradient>
<linearGradient id="paint4_linear_1633_25038" x1="419.731" y1="649.379" x2="411.867" y2="1057.74" gradientUnits="userSpaceOnUse">
<stop stop-color="#F0F9FE"/>
<stop offset="0.145833" stop-color="#BFDAEA"/>
<stop offset="1" stop-color="#F0F9FE"/>
</linearGradient>
<linearGradient id="paint5_linear_1633_25038" x1="768.259" y1="501.813" x2="758.178" y2="1025.3" gradientUnits="userSpaceOnUse">
<stop stop-color="#F0F9FE"/>
<stop offset="0.473958" stop-color="#BFDAEA"/>
<stop offset="1" stop-color="#F0F9FE"/>
</linearGradient>
<linearGradient id="paint6_linear_1633_25038" x1="1213.32" y1="503.14" x2="1203.7" y2="1002.73" gradientUnits="userSpaceOnUse">
<stop stop-color="#F0F9FE"/>
<stop offset="0.145833" stop-color="#BFDAEA"/>
<stop offset="1" stop-color="#F0F9FE"/>
</linearGradient>
<linearGradient id="paint7_linear_1633_25038" x1="1526.27" y1="468.878" x2="1519.66" y2="812.077" gradientUnits="userSpaceOnUse">
<stop stop-color="#F0F9FE"/>
<stop offset="0.145833" stop-color="#BFDAEA"/>
<stop offset="1" stop-color="#F0F9FE"/>
</linearGradient>
<linearGradient id="paint8_linear_1633_25038" x1="351.598" y1="727.019" x2="343.734" y2="1135.38" gradientUnits="userSpaceOnUse">
<stop stop-color="#F0F9FE"/>
<stop offset="0.145833" stop-color="#BFDAEA"/>
<stop offset="1" stop-color="#F0F9FE"/>
</linearGradient>
<linearGradient id="paint9_linear_1633_25038" x1="638.958" y1="577.548" x2="630.801" y2="1001.12" gradientUnits="userSpaceOnUse">
<stop stop-color="#F0F9FE"/>
<stop offset="0.145833" stop-color="#BFDAEA"/>
<stop offset="1" stop-color="#F0F9FE"/>
</linearGradient>
<linearGradient id="paint10_linear_1633_25038" x1="1059.91" y1="495.84" x2="1049.82" y2="1020.05" gradientUnits="userSpaceOnUse">
<stop stop-color="#F0F9FE"/>
<stop offset="0.145833" stop-color="#BFDAEA"/>
<stop offset="1" stop-color="#F0F9FE"/>
</linearGradient>
<linearGradient id="paint11_linear_1633_25038" x1="1397.52" y1="463.591" x2="1389.65" y2="871.955" gradientUnits="userSpaceOnUse">
<stop stop-color="#F0F9FE"/>
<stop offset="0.145833" stop-color="#BFDAEA"/>
<stop offset="1" stop-color="#F0F9FE"/>
</linearGradient>
<linearGradient id="paint12_linear_1633_25038" x1="438.754" y1="440.691" x2="433.525" y2="712.21" gradientUnits="userSpaceOnUse">
<stop stop-color="#F0F9FE"/>
<stop offset="0.338542" stop-color="#BFDAEA"/>
<stop offset="1" stop-color="#F0F9FE"/>
</linearGradient>
<linearGradient id="paint13_linear_1633_25038" x1="566.297" y1="493.849" x2="556.815" y2="986.203" gradientUnits="userSpaceOnUse">
<stop stop-color="#F0F9FE"/>
<stop offset="0.03125" stop-color="#BFDAEA"/>
<stop offset="1" stop-color="#F0F9FE"/>
</linearGradient>
<linearGradient id="paint14_linear_1633_25038" x1="506.549" y1="455.76" x2="498.852" y2="855.435" gradientUnits="userSpaceOnUse">
<stop stop-color="#F0F9FE"/>
<stop offset="0.0572917" stop-color="#BFDAEA"/>
<stop offset="1" stop-color="#F0F9FE"/>
</linearGradient>
<linearGradient id="paint15_linear_1633_25038" x1="639.314" y1="501.05" x2="627.211" y2="1129.53" gradientUnits="userSpaceOnUse">
<stop stop-color="#F0F9FE"/>
<stop offset="0.03125" stop-color="#BFDAEA"/>
<stop offset="1" stop-color="#F0F9FE"/>
</linearGradient>
<linearGradient id="paint16_linear_1633_25038" x1="812.728" y1="485.558" x2="800.625" y2="1114.03" gradientUnits="userSpaceOnUse">
<stop stop-color="#F0F9FE"/>
<stop offset="0.03125" stop-color="#BFDAEA"/>
<stop offset="1" stop-color="#F0F9FE"/>
</linearGradient>
<linearGradient id="paint17_linear_1633_25038" x1="1010.4" y1="451.701" x2="998.292" y2="1080.18" gradientUnits="userSpaceOnUse">
<stop stop-color="#F0F9FE"/>
<stop offset="0.03125" stop-color="#BFDAEA"/>
<stop offset="1" stop-color="#F0F9FE"/>
</linearGradient>
<linearGradient id="paint18_linear_1633_25038" x1="1193.97" y1="434.956" x2="1181.87" y2="1063.43" gradientUnits="userSpaceOnUse">
<stop stop-color="#F0F9FE"/>
<stop offset="0.03125" stop-color="#BFDAEA"/>
<stop offset="1" stop-color="#F0F9FE"/>
</linearGradient>
<linearGradient id="paint19_linear_1633_25038" x1="1286.41" y1="485.989" x2="1274.31" y2="1114.46" gradientUnits="userSpaceOnUse">
<stop stop-color="#F0F9FE"/>
<stop offset="0.03125" stop-color="#BFDAEA"/>
<stop offset="1" stop-color="#F0F9FE"/>
</linearGradient>
<linearGradient id="paint20_linear_1633_25038" x1="1391.93" y1="535.826" x2="1379.82" y2="1164.3" gradientUnits="userSpaceOnUse">
<stop stop-color="#F0F9FE"/>
<stop offset="0.03125" stop-color="#BFDAEA"/>
<stop offset="1" stop-color="#F0F9FE"/>
</linearGradient>
<linearGradient id="paint21_linear_1633_25038" x1="1523.56" y1="583.269" x2="1511.46" y2="1211.74" gradientUnits="userSpaceOnUse">
<stop stop-color="#F0F9FE"/>
<stop offset="0.03125" stop-color="#BFDAEA"/>
<stop offset="1" stop-color="#F0F9FE"/>
</linearGradient>
<linearGradient id="paint22_linear_1633_25038" x1="1241.08" y1="769.32" x2="1268.62" y2="778.801" gradientUnits="userSpaceOnUse">
<stop stop-color="#83D4EF"/>
<stop offset="1" stop-color="#DBF6FF" stop-opacity="0.3"/>
</linearGradient>
<linearGradient id="paint23_linear_1633_25038" x1="1182.42" y1="719.351" x2="1209.96" y2="728.833" gradientUnits="userSpaceOnUse">
<stop stop-color="#83D4EF"/>
<stop offset="1" stop-color="#DBF6FF" stop-opacity="0.3"/>
</linearGradient>
<linearGradient id="paint24_linear_1633_25038" x1="613.358" y1="731.952" x2="635.444" y2="739.56" gradientUnits="userSpaceOnUse">
<stop stop-color="#83D4EF"/>
<stop offset="1" stop-color="#DBF6FF" stop-opacity="0.3"/>
</linearGradient>
<linearGradient id="paint25_linear_1633_25038" x1="626.387" y1="734.847" x2="648.474" y2="742.455" gradientUnits="userSpaceOnUse">
<stop stop-color="#83D4EF"/>
<stop offset="1" stop-color="#DBF6FF" stop-opacity="0.3"/>
</linearGradient>
<clipPath id="clip0_1633_25038">
<rect width="1900" height="1056" fill="white"/>
</clipPath>
</defs>
</svg>
